<mxfile host="app.diagrams.net" modified="2023-09-22T13:19:08.261Z" agent="Mozilla/5.0 (Macintosh; Intel Mac OS X 10.15; rv:109.0) Gecko/20100101 Firefox/117.0" version="21.8.0" etag="BmXqCTKVt_DSUD6W_P3E" type="github">
  <diagram name="Page-1" id="a0nedEo6vyV6A7tYIJX2">
    <mxGraphModel>
      <root>
        <mxCell id="0" />
        <mxCell id="1" parent="0" />
      </root>
    </mxGraphModel>
  </diagram>
</mxfile>
